<svg xmlns="http://www.w3.org/2000/svg" width="100" height="100" viewBox="0 0 100 100">
  <g id="Group_6" data-name="Group 6" transform="translate(-398 -3059)">
    <g id="Path_3" data-name="Path 3" transform="translate(398 3059)" fill="none">
      <path d="M50,0A50,50,0,1,1,0,50,50,50,0,0,1,50,0Z" stroke="none"/>
      <path d="M 50 2 C 43.51915740966797 2 37.23324203491211 3.268829345703125 31.31684112548828 5.771255493164062 C 25.60127258300781 8.188743591308594 20.46775817871094 11.64998626708984 16.05886840820312 16.05886840820312 C 11.64998626708984 20.46775817871094 8.188743591308594 25.60127258300781 5.771255493164062 31.31684112548828 C 3.268829345703125 37.23324203491211 2 43.51915740966797 2 50 C 2 56.48084259033203 3.268829345703125 62.76675796508789 5.771255493164062 68.68314361572266 C 8.188743591308594 74.39871215820312 11.64998626708984 79.53224182128906 16.05886840820312 83.94113159179688 C 20.46775817871094 88.34999847412109 25.60127258300781 91.81125640869141 31.31684112548828 94.22874450683594 C 37.23324203491211 96.73117065429688 43.51915740966797 98 50 98 C 56.48084259033203 98 62.76675796508789 96.73117065429688 68.68314361572266 94.22874450683594 C 74.39871215820312 91.81125640869141 79.53224182128906 88.34999847412109 83.94113159179688 83.94113159179688 C 88.34999847412109 79.53224182128906 91.81125640869141 74.39871215820312 94.22874450683594 68.68314361572266 C 96.73117065429688 62.76675796508789 98 56.48084259033203 98 50 C 98 43.51915740966797 96.73117065429688 37.23324203491211 94.22874450683594 31.31684112548828 C 91.81125640869141 25.60127258300781 88.34999847412109 20.46775817871094 83.94113159179688 16.05886840820312 C 79.53224182128906 11.64998626708984 74.39871215820312 8.188743591308594 68.68314361572266 5.771255493164062 C 62.76675796508789 3.268829345703125 56.48084259033203 2 50 2 M 50 0 C 77.61422729492188 0 100 22.38575744628906 100 50 C 100 77.61422729492188 77.61422729492188 100 50 100 C 22.38575744628906 100 0 77.61422729492188 0 50 C 0 22.38575744628906 22.38575744628906 0 50 0 Z" stroke="none" fill="#fff"/>
    </g>
    <g id="noun_call_service_support_icon_2851675" data-name="noun_call service support icon_2851675" transform="translate(386.6 3203.5)">
      <g id="Group_5" data-name="Group 5" transform="translate(36.4 -119.5)">
        <path id="Path_1" data-name="Path 1" d="M27.029,39.5a13.232,13.232,0,0,1,1.943.177,9.332,9.332,0,0,1,1.678.53,1.975,1.975,0,0,1,1.06,1.325l2.12,13.251a1.7,1.7,0,0,1-.53,1.59,10.111,10.111,0,0,1-4.329,2.208A30.111,30.111,0,0,0,48.407,77.928,8.469,8.469,0,0,1,50.616,73.6a1.7,1.7,0,0,1,1.59-.53l13.163,2.12a1.661,1.661,0,0,1,1.325,1.06,6.158,6.158,0,0,1,.53,1.678,14.5,14.5,0,0,1,.177,2.032A9.592,9.592,0,0,1,58.743,89.5h-.972A40.393,40.393,0,0,1,17.4,50.1V48.157A9.678,9.678,0,0,1,27.029,39.5Z" transform="translate(-17.4 -39.5)" fill="#fff"/>
      </g>
    </g>
  </g>
</svg>
